<svg id="Layer_1" xmlns="http://www.w3.org/2000/svg" viewBox="0 0 452.8 165.4"><style>.st0{fill:#fff}</style><g id="LendingTree_Logo_8_"><g id="LendingTree_8_"><g id="Registered_Trademark_16_"><path class="st0" d="M436.7 85.5c-.3-.5-.7-.9-1.1-1.1-.5-.3-1-.4-1.5-.4s-1 .1-1.5.4-.9.6-1.1 1.1c-.3.5-.4 1-.4 1.6 0 .5.1 1 .4 1.5s.7.9 1.1 1.1c.5.3 1 .4 1.5.4s1-.1 1.5-.4.9-.7 1.1-1.1c.3-.5.4-1 .4-1.5 0-.6-.1-1.1-.4-1.6zm-.5 2.8c-.2.4-.5.7-.9.9-.4.2-.8.3-1.2.3-.4 0-.8-.1-1.2-.3-.4-.2-.7-.5-.9-.9-.2-.4-.3-.8-.3-1.2 0-.4.1-.9.3-1.2.2-.4.5-.7.9-.9.4-.2.8-.3 1.2-.3.4 0 .8.1 1.2.3.4.2.7.5.9.9.2.4.3.8.3 1.2s-.1.8-.3 1.2z"/><path class="st0" d="M435.1 88l-.2-.4-.2-.2c-.1 0-.1-.1-.2-.1.3 0 .5-.1.6-.3.2-.2.2-.4.2-.6s0-.3-.1-.5l-.3-.3c-.1-.1-.3-.1-.5-.1h-1.6v3.2h.6v-1.3h.2c.2 0 .3 0 .4.1s.3.3.4.7l.3.5h.8l-.4-.7zm-.8-1.2h-1v-.9h1c.1 0 .2.1.2.1.1.1.1.1.1.2s0 .2-.1.2c0 .3-.1.3-.2.4z"/></g><g id="Registered_Trademark_15_"><path class="st0" d="M436.7 85.5c-.3-.5-.7-.9-1.1-1.1-.5-.3-1-.4-1.5-.4s-1 .1-1.5.4-.9.6-1.1 1.1c-.3.5-.4 1-.4 1.6 0 .5.1 1 .4 1.5s.7.9 1.1 1.1c.5.3 1 .4 1.5.4s1-.1 1.5-.4.9-.7 1.1-1.1c.3-.5.4-1 .4-1.5 0-.6-.1-1.1-.4-1.6zm-.5 2.8c-.2.4-.5.7-.9.9-.4.2-.8.3-1.2.3-.4 0-.8-.1-1.2-.3-.4-.2-.7-.5-.9-.9-.2-.4-.3-.8-.3-1.2 0-.4.1-.9.3-1.2.2-.4.5-.7.9-.9.4-.2.8-.3 1.2-.3.4 0 .8.1 1.2.3.4.2.7.5.9.9.2.4.3.8.3 1.2s-.1.8-.3 1.2z"/><path class="st0" d="M435.5 86.1l-.5-.5-1 1-.9-1-.5.5 1 .9-1 1 .5.5.9-1 1 1 .5-.5-1-1z"/></g><path class="st0" d="M432 106.7c0-7.7-1.8-13.6-5.3-17.7s-8.8-6.2-15.6-6.2c-6.9 0-12.2 2.2-16 6.4-3.7 4.2-5.6 10.4-5.6 18.5 0 5.2 1 9.6 3.1 13.1 2 3.5 4.8 6.1 8.2 7.8 3.4 1.7 7.2 2.5 11.4 2.5 3.3 0 6.3-.4 8.8-1.1 2.6-.8 5-1.9 7.2-3.5.7-.5 1-1.1 1-1.8 0-.4-.1-.9-.3-1.4l-1.9-3.9c-.4-1.2-1.2-1.3-1.6-1.3s-.8.2-1.3.5c-3.1 2.1-6.7 3.2-10.7 3.2-4.1 0-7.3-1-9.5-3-2.1-1.9-3.2-4.5-3.3-7.9h28c1.3-.2 3.4-.7 3.4-4.2zm-31.3-4.4c.1-3.1 1-5.6 2.7-7.5 1.8-2 4.4-3 7.8-3 3.3 0 5.9 1 7.5 2.9 1.5 1.8 2.4 4.4 2.5 7.6h-20.5zm-35.8-19.6c-6.9 0-12.2 2.2-16 6.4-3.7 4.2-5.6 10.4-5.6 18.5 0 5.2 1 9.6 3.1 13.1 2 3.5 4.8 6.1 8.2 7.8 3.4 1.7 7.2 2.5 11.4 2.5 3.3 0 6.3-.4 8.8-1.1 2.6-.8 5-1.9 7.2-3.5.7-.5 1-1.1 1-1.8 0-.4-.1-.9-.3-1.4l-1.9-3.9c-.4-1.2-1.2-1.3-1.6-1.3s-.8.2-1.3.5c-3.1 2.1-6.7 3.2-10.7 3.2-4.1 0-7.3-1-9.5-3-2.1-1.9-3.2-4.5-3.3-7.9h28c1.2 0 3.3-.5 3.3-4 0-7.7-1.8-13.6-5.3-17.7-3.4-4.3-8.6-6.4-15.5-6.4zm10.1 19.6h-20.6c.1-3.1 1-5.6 2.7-7.5 1.8-2 4.4-3 7.8-3 3.3 0 5.9 1 7.5 2.9 1.7 1.9 2.5 4.4 2.6 7.6zm-30-15c.1-.5.2-1 0-1.4-.1-.4-.4-.8-.9-1.2-1.7-1.3-6.9-1.5-8.2-1.5-1 0-4.6.1-11.7 2.2-.4-.6-1-1-1.7-1h-5.2c-1.1 0-1.9.3-2.3.9-.4.5-.5 1.3-.5 2.4v37.9c0 1.3.3 2.3.9 3l.1.1c.6.7 1.6 1 2.8 1h4.1c1.3 0 2.3-.4 2.9-1.1.6-.7.8-1.7.8-3v-31c1-.5 5.9-1.5 8.8-1.5.4 0 .8 0 1.2.1 1.3.1 2.4.4 3.4.9l.8.2h.2c.5 0 1.3-.2 1.6-1.4l2.9-5.6zm-35.7-2.1c-.5-.7-1.4-1-2.7-1h-8V72.6c0-1.2-.2-2.2-.8-2.8-.6-.7-1.4-1.1-2.6-1.1h-4.9c-1.2 0-2.1.4-2.6 1.1s-.8 1.6-.8 2.8v41.5c0 13.5 8.4 16.4 12.7 16.9 1.4.2 2.6-.9 2.6-2.3v-6.2c0-.9-.5-1.6-1.2-2-.4-.2-.9-.6-1.3-1.1-.8-1-1.1-3-1.1-5.6V94.4h8c1.3 0 2.2-.3 2.7-.9s.7-1.5.7-2.9v-2.5c0-1.3-.2-2.3-.7-2.9zm-36.5-.7c-3.3-1.1-6.8-1.7-10.3-1.7-7.6 0-13.5 2.2-17.5 6.4-4 4.3-6.1 10.4-6.1 18.3 0 6.9 1.7 12.4 5.1 16.3 3.4 3.9 8.2 5.9 14.3 5.9 2.9 0 5.4-.5 7.4-1.4 1.4-.6 2.8-1.5 3.9-2.7-.2 3.3-.9 5.8-2.2 7.2-1.5 1.8-3.8 2.6-7.1 2.6-3.1 0-6.1-.5-8.6-1.4-1-.4-2.1.4-2.1 1.4l-.2 6.7c0 .7.5 1.4 1.2 1.6 2.1.5 6.5 1.5 10.6 1.5 6.8 0 11.9-2.2 15.2-6.6 3.2-4.3 4.8-10.4 4.8-17.9V88.3c.1 0-5.1-2.7-8.4-3.8zm-3 9.8v15.8c0 2.9-.8 5.3-2.5 6.9s-3.9 2.5-6.6 2.5c-3.4 0-6-1-7.7-3-1.7-2.1-2.6-5.3-2.6-9.6 0-9.4 3.8-13.9 11.6-13.9 1.6 0 3.2.1 4.6.4 1.3.1 2.3.5 3.2.9zm-50.3-11.5c-5.6 0-8.4.7-12.6 1.8-.7.2-1.4.4-2.1.5-.3-.6-1-1-1.7-1h-5.2c-1.1 0-1.9.3-2.3.9-.4.5-.5 1.3-.5 2.4v38.2c0 1.3.3 2.3.9 3 .6.7 1.6 1.1 2.9 1.1h4.1c1.3 0 2.3-.4 2.9-1.1.6-.7.8-1.7.8-3V94.4c1.1-.5 6.7-1.5 9.6-1.5 2.4 0 4.1.5 5.1 1.6s1.5 3.1 1.5 5.8v25.4c0 1.3.3 2.3.9 3 .6.7 1.6 1.1 2.9 1.1h4.2c1.3 0 2.3-.4 2.9-1.1.6-.7.8-1.7.8-3V99.6c0-5.5-1.4-9.7-4.1-12.5-2.9-2.9-6.5-4.3-11-4.3zm-34 1.4h-4.1c-1.3 0-2.3.4-2.9 1.1-.6.7-.9 1.7-.9 3.1v37.3c0 1.3.3 2.3.9 3 .6.7 1.6 1.1 2.9 1.1h4.1c1.3 0 2.3-.4 2.9-1.1.6-.7.8-1.7.8-3V88.4c0-1.4-.3-2.4-.9-3.1-.5-.7-1.5-1.1-2.8-1.1zm-14.6-19.1c-3.4 1.5-10.5 7.4-10.5 8.8v12c-2.6-2.1-6.4-3.2-11.1-3.2-4 0-7.6 1-10.5 3.1-3 2-5.3 4.9-6.8 8.5-1.6 3.6-2.3 7.8-2.3 12.5 0 16.1 7.8 24.2 23.1 24.2 3.7 0 7.3-.6 10.7-1.7 3.4-1.2 8.6-3.8 8.6-3.8V66.1c0-.3-.1-.5-.2-.7-.4-.2-.7-.5-1-.3zM160.5 101v18.3c-1.9 1.2-4.4 1.8-7.5 1.8-4 0-7-1.1-8.9-3.2-1.9-2.2-2.9-5.8-2.9-10.8 0-4.5.9-8.1 2.7-10.6 1.7-2.4 4.4-3.7 7.9-3.7 2.6 0 4.8.7 6.4 2.1 1.5 1.3 2.3 3.4 2.3 6.1zm-50.2-18.2c-5.6 0-8.4.7-12.6 1.8l-.3.1c-.6.2-1.2.3-1.9.5-.2-.4-.7-1-1.7-1h-5.2c-1.1 0-1.9.3-2.3.9-.4.5-.5 1.3-.5 2.4v38.2c0 1.3.3 2.3.9 3s1.6 1.1 2.9 1.1h4.1c1.3 0 2.3-.4 2.9-1.1.6-.7.8-1.7.8-3V94.4c1.1-.5 6.7-1.5 9.6-1.5 2.4 0 4.1.5 5.1 1.6s1.5 3 1.5 5.8v25.4c0 1.3.3 2.3.9 3 .6.7 1.6 1.1 2.9 1.1h4.2c1.3 0 2.3-.4 2.9-1.1.6-.7.8-1.7.8-3V99.6c0-5.5-1.4-9.7-4.1-12.5-2.8-2.9-6.5-4.3-10.9-4.3zm-49.9-.1c-6.9 0-12.2 2.2-16 6.4-3.7 4.2-5.6 10.4-5.6 18.5 0 5.2 1 9.6 3.1 13.1 2 3.5 4.8 6.1 8.2 7.8 3.4 1.7 7.2 2.5 11.4 2.5 3.3 0 6.3-.4 8.8-1.1 2.6-.8 5-1.9 7.2-3.5.7-.5 1-1.1 1-1.8 0-.4-.1-.9-.3-1.4l-1.9-3.9c-.4-1.2-1.2-1.3-1.6-1.3s-.8.2-1.3.5c-3.1 2.1-6.7 3.2-10.7 3.2-4.1 0-7.3-1-9.5-3-2.1-1.9-3.2-4.5-3.3-7.9h28c1.2 0 3.3-.5 3.3-4 0-7.7-1.8-13.6-5.3-17.7-3.4-4.3-8.7-6.4-15.5-6.4zm10.1 19.6H49.9c.1-3.1 1-5.6 2.7-7.5 1.8-2 4.4-3 7.8-3 3.3 0 5.9 1 7.5 2.9 1.6 1.9 2.5 4.4 2.6 7.6zm-36.1 17.1c-.8-1-1.1-3-1.1-5.6V70.2c0-1.2-.2-2.2-.8-2.8-.6-.7-1.4-1.1-2.6-1.1H25c-1.2 0-2.1.4-2.6 1.1s-.8 1.6-.8 2.8v43.9c0 13.5 8.4 16.4 12.7 16.9 1.4.2 2.6-.9 2.6-2.3v-6.2c0-.9-.5-1.6-1.2-2-.4-.2-.8-.5-1.3-1.1z"/></g><g id="Leaf_11_"><linearGradient id="SVGID_1_" gradientUnits="userSpaceOnUse" x1="178.168" y1="89.088" x2="236.09" y2="147.01" gradientTransform="matrix(1 0 0 -1 0 168)"><stop offset=".05" stop-color="#078181"/><stop offset=".213" stop-color="#07997d"/><stop offset=".41" stop-color="#08af7a"/><stop offset=".599" stop-color="#08bc78"/><stop offset=".77" stop-color="#08c177"/></linearGradient><path d="M235 20c-3 .5-22.6 2.6-37.1 6.2-20.6 5.1-20.2 22.3-20.2 29.1v23c0 .3.3.4.4.1 14.3-19 29.1-31.4 29.1-31.4s.1-.1-.1 0c-1.3.3-8.7 2.7-17.7 7.6v-2.9c-.1-11.7 6.8-14.9 15-17.2 6.7-1.9 19.2-2.9 19.2-2.9s-1 7.3-2.3 22.2c-1 10.9-8.9 13.3-20.1 13.3h-6.3c-5 7.2-5.7 11.5-5.7 11.5h12.3c23.4 0 28.6-10.3 29.7-25.5 1.4-19.4 3.4-30.6 3.9-32.7.2-.2.1-.4-.1-.4z" fill="url(#SVGID_1_)"/></g></g></svg>